<svg width="1080" height="1080" viewBox="0 0 1080 1080" fill="none" xmlns="http://www.w3.org/2000/svg">
<g clip-path="url(#clip0_211_2899)">
<rect width="1080" height="1080" rx="217" fill="#121212"/>
<path d="M916.153 225.553L840.054 446.56H210.902L287 225.553H916.153ZM496.594 -0.364092H814.092L513.714 871.997C507.372 890.414 505.258 905.352 507.373 916.812C510.06 927.862 516.619 935.843 527.048 940.754C537.617 945.256 551.343 947.507 568.224 947.507C580.344 947.507 593.465 946.484 607.589 944.438C622.285 941.982 633.378 939.936 640.868 938.299L614.296 1155.01C597.737 1159.1 574.549 1164.22 544.732 1170.36C515.349 1176.49 481.33 1180.38 442.675 1182.02C367.097 1185.29 306.069 1177.11 259.593 1157.46C213.69 1137.41 183.928 1106.3 170.308 1064.15C157.12 1021.99 161.951 968.994 184.801 905.148L496.594 -0.364092Z" fill="#007AFF"/>
<path d="M682.175 288.708C693.451 258.236 736.549 258.236 747.825 288.708L786.661 393.661C790.206 403.241 797.759 410.794 807.339 414.339L912.292 453.175C942.764 464.451 942.764 507.549 912.292 518.825L807.339 557.661C797.759 561.206 790.206 568.759 786.661 578.339L747.825 683.292C736.549 713.764 693.451 713.764 682.175 683.292L643.339 578.339C639.794 568.759 632.241 561.206 622.661 557.661L517.708 518.825C487.236 507.549 487.236 464.451 517.708 453.175L622.661 414.339C632.241 410.794 639.794 403.241 643.339 393.661L682.175 288.708Z" fill="white"/>
</g>
<defs>
<clipPath id="clip0_211_2899">
<rect width="1080" height="1080" rx="217" fill="white"/>
</clipPath>
</defs>
</svg>
